<svg width="41" height="40" viewBox="0 0 41 40" fill="none" xmlns="http://www.w3.org/2000/svg">
<g id="Iconsax/Linear/box">
<path id="Vector" d="M5.78345 12.3999L20.5001 20.9166L35.1168 12.4499M20.5001 36.0166V20.8999" stroke="#DF703B" stroke-width="1.5" stroke-linecap="round" stroke-linejoin="round"/>
<path id="Vector_2" d="M17.0501 4.13325L8.15007 9.08325C6.1334 10.1999 4.4834 12.9999 4.4834 15.2999V24.7166C4.4834 27.0166 6.1334 29.8166 8.15007 30.9333L17.0501 35.8833C18.9501 36.9333 22.0667 36.9333 23.9667 35.8833L32.8667 30.9333C34.8834 29.8166 36.5334 27.0166 36.5334 24.7166V15.2999C36.5334 12.9999 34.8834 10.1999 32.8667 9.08325L23.9667 4.13325C22.0501 3.06659 18.9501 3.06659 17.0501 4.13325Z" stroke="#DF703B" stroke-width="1.5" stroke-linecap="round" stroke-linejoin="round"/>
<path id="Vector_3" d="M28.8333 22.0666V15.9666L13.0166 6.83325" stroke="#DF703B" stroke-width="1.5" stroke-linecap="round" stroke-linejoin="round"/>
</g>
</svg>
