<svg width="41" height="40" viewBox="0 0 41 40" fill="none" xmlns="http://www.w3.org/2000/svg">
<g id="Iconsax/Linear/ticketdiscount">
<path id="Vector" d="M15.4999 24.5834L25.4999 14.5834M32.9999 20.8334C32.9999 19.7283 33.4389 18.6685 34.2203 17.8871C35.0017 17.1057 36.0615 16.6667 37.1666 16.6667V15.0001C37.1666 8.33341 35.4999 6.66675 28.8333 6.66675H12.1666C5.49992 6.66675 3.83325 8.33341 3.83325 15.0001V15.8334C4.93832 15.8334 5.99813 16.2724 6.77953 17.0538C7.56093 17.8352 7.99992 18.895 7.99992 20.0001C7.99992 21.1051 7.56093 22.165 6.77953 22.9464C5.99813 23.7278 4.93832 24.1667 3.83325 24.1667V25.0001C3.83325 31.6667 5.49992 33.3334 12.1666 33.3334H28.8333C35.4999 33.3334 37.1666 31.6667 37.1666 25.0001C36.0615 25.0001 35.0017 24.5611 34.2203 23.7797C33.4389 22.9983 32.9999 21.9385 32.9999 20.8334Z" stroke="#DF703B" stroke-width="1.5" stroke-linecap="round" stroke-linejoin="round"/>
<path id="Vector_2" d="M25.4917 24.5834H25.5067M15.4917 15.4167H15.505" stroke="#DF703B" stroke-width="2" stroke-linecap="round" stroke-linejoin="round"/>
</g>
</svg>
