<svg width="32" height="32" viewBox="0 0 32 32" fill="none" xmlns="http://www.w3.org/2000/svg">
<g id="icon/dribbble" opacity="0.7">
<path id="vector" fill-rule="evenodd" clip-rule="evenodd" d="M16.0001 2.66675C8.63928 2.66675 2.66675 8.63928 2.66675 16.0001C2.66675 23.3609 8.63928 29.3334 16.0001 29.3334C23.3464 29.3334 29.3334 23.3609 29.3334 16.0001C29.3334 8.63928 23.3464 2.66675 16.0001 2.66675ZM24.807 8.8128C26.3978 10.7506 27.3522 13.2235 27.3811 15.8989C27.0051 15.8265 23.2452 15.0601 19.4563 15.5373C19.3696 15.3493 19.2973 15.1469 19.2105 14.9444C18.9791 14.3949 18.7188 13.8309 18.4585 13.2958C22.6523 11.5894 24.5612 9.13096 24.807 8.8128ZM16.0001 4.63349C18.8923 4.63349 21.5388 5.71808 23.5489 7.49683C23.3464 7.78606 21.6255 10.0854 17.5764 11.6038C15.7109 8.17651 13.6429 5.37101 13.3247 4.93717C14.1779 4.73472 15.0746 4.63349 16.0001 4.63349ZM11.1555 5.70363C11.4592 6.10853 13.4838 8.92851 15.3782 12.2835C10.0565 13.7007 5.35656 13.6718 4.85041 13.6718C5.58792 10.1433 7.97405 7.2076 11.1555 5.70363ZM4.60456 16.0145C4.60456 15.8989 4.60456 15.7832 4.60456 15.6675C5.09625 15.6819 10.6205 15.7542 16.3038 14.0478C16.6364 14.6841 16.9401 15.3349 17.2293 15.9856C17.0847 16.029 16.9256 16.0724 16.781 16.1158C10.9097 18.0102 7.78606 23.1874 7.52576 23.6212C5.71808 21.6111 4.60456 18.9357 4.60456 16.0145ZM16.0001 27.3956C13.3681 27.3956 10.9386 26.499 9.01526 24.995C9.21774 24.5757 11.5315 20.1215 17.9523 17.8801C17.9813 17.8656 17.9957 17.8656 18.0247 17.8511C19.6299 22.0015 20.2806 25.4867 20.4542 26.4845C19.0803 27.0774 17.5764 27.3956 16.0001 27.3956ZM22.3486 25.4433C22.2329 24.7492 21.6256 21.4231 20.136 17.3305C23.708 16.7665 26.8316 17.6921 27.2221 17.8222C26.7304 20.9892 24.9082 23.7224 22.3486 25.4433Z" fill="black"/>
</g>
</svg>
