<svg width="32" height="32" viewBox="0 0 32 32" fill="none" xmlns="http://www.w3.org/2000/svg">
<g id="icon/messenger" opacity="0.7">
<path id="vector" fill-rule="evenodd" clip-rule="evenodd" d="M4 15.64C4 8.95168 9.24004 4 16 4C22.76 4 28 8.95168 28 15.64C28 22.3283 22.76 27.28 16 27.28C14.7858 27.28 13.6209 27.1197 12.5264 26.8187C12.3136 26.7602 12.0874 26.7767 11.8854 26.8658L9.50361 27.9172C8.88057 28.1922 8.17727 27.7492 8.15639 27.0683L8.09104 24.9338C8.083 24.6707 7.96468 24.425 7.76867 24.2495C5.43376 22.1615 4 19.1384 4 15.64ZM12.3191 13.4516L8.79405 19.0441C8.45577 19.5808 9.11548 20.1856 9.62085 19.8021L13.4073 16.9284C13.6634 16.734 14.0174 16.733 14.2746 16.9259L17.0783 19.0287C17.9195 19.6597 19.1202 19.4381 19.681 18.5485L23.206 12.9559C23.5442 12.4192 22.8845 11.8144 22.3791 12.1979L18.5927 15.0716C18.3366 15.266 17.9826 15.267 17.7254 15.0741L14.9218 12.9713C14.0805 12.3404 12.8798 12.5619 12.3191 13.4516Z" fill="black"/>
</g>
</svg>
