<svg width="32" height="32" viewBox="0 0 32 32" fill="none" xmlns="http://www.w3.org/2000/svg">
<g id="icon/twitter" opacity="0.7">
<path id="vector" d="M26.6034 10.5601C26.6196 10.7951 26.6196 11.0302 26.6196 11.2675C26.6196 18.4967 21.1162 26.8341 11.053 26.8341V26.8298C8.08025 26.8341 5.16929 25.9826 2.66675 24.3771C3.099 24.4291 3.53343 24.4551 3.96894 24.4562C6.43247 24.4584 8.82559 23.6318 10.7637 22.1097C8.42259 22.0652 6.36964 20.5388 5.65246 18.3103C6.47256 18.4685 7.31757 18.436 8.1225 18.2161C5.57013 17.7004 3.73385 15.4579 3.73385 12.8535C3.73385 12.8297 3.73385 12.8069 3.73385 12.7842C4.49436 13.2078 5.34587 13.4429 6.21689 13.4689C3.81293 11.8622 3.07192 8.66419 4.52361 6.16382C7.30132 9.58179 11.3996 11.6597 15.7991 11.8796C15.3582 9.97938 15.9605 7.98818 17.3819 6.65241C19.5854 4.58105 23.0511 4.68722 25.1224 6.88967C26.3477 6.64808 27.5221 6.19849 28.5967 5.56148C28.1883 6.82791 27.3336 7.90368 26.1917 8.58728C27.2761 8.45944 28.3357 8.1691 29.3334 7.72601C28.5989 8.8267 27.6737 9.78546 26.6034 10.5601Z" fill="black"/>
</g>
</svg>
