<svg width="25" height="25" viewBox="0 0 25 25" fill="none" xmlns="http://www.w3.org/2000/svg">
<g id="Iconsax/Linear/profile">
<path id="Vector" d="M12.3585 11.37C12.2585 11.36 12.1385 11.36 12.0285 11.37C10.8807 11.331 9.7931 10.8468 8.99609 10.0199C8.19907 9.19307 7.7552 8.08844 7.75846 6.93999C7.75846 4.48999 9.73846 2.49999 12.1985 2.49999C12.7809 2.48948 13.3596 2.5938 13.9017 2.80697C14.4438 3.02014 14.9386 3.338 15.3579 3.7424C15.7772 4.1468 16.1127 4.62982 16.3452 5.16388C16.5778 5.69794 16.703 6.27258 16.7135 6.85499C16.724 7.4374 16.6197 8.01618 16.4065 8.55828C16.1933 9.10038 15.8754 9.59518 15.471 10.0144C15.0666 10.4337 14.5836 10.7692 14.0496 11.0018C13.5155 11.2344 12.9409 11.3595 12.3585 11.37ZM7.35846 15.06C4.93846 16.68 4.93846 19.32 7.35846 20.93C10.1085 22.77 14.6185 22.77 17.3685 20.93C19.7885 19.31 19.7885 16.67 17.3685 15.06C14.6285 13.23 10.1185 13.23 7.35846 15.06Z" stroke="black" stroke-width="1.5" stroke-linecap="round" stroke-linejoin="round"/>
</g>
</svg>
