<svg width="24" height="25" viewBox="0 0 24 25" fill="none" xmlns="http://www.w3.org/2000/svg">
<g id="Iconsax/Linear/searchnormal">
<path id="Vector" d="M11 20.5C13.3869 20.5 15.6761 19.5518 17.364 17.864C19.0518 16.1761 20 13.8869 20 11.5C20 9.11305 19.0518 6.82387 17.364 5.13604C15.6761 3.44821 13.3869 2.5 11 2.5C8.61305 2.5 6.32387 3.44821 4.63604 5.13604C2.94821 6.82387 2 9.11305 2 11.5C2 13.8869 2.94821 16.1761 4.63604 17.864C6.32387 19.5518 8.61305 20.5 11 20.5ZM18.93 21.19C19.46 22.79 20.67 22.95 21.6 21.55C22.45 20.27 21.89 19.22 20.35 19.22C19.21 19.21 18.57 20.1 18.93 21.19Z" stroke="black" stroke-width="1.5" stroke-linecap="round" stroke-linejoin="round"/>
</g>
</svg>
