<svg width="19" height="21" viewBox="0 0 19 21" fill="none" xmlns="http://www.w3.org/2000/svg">
<g id="Group 7">
<path id="Vector" d="M5.27926 6.72606V5.83067C5.27926 3.75375 7.01686 1.71375 9.17686 1.5199C9.77703 1.46321 10.3829 1.52796 10.9555 1.71C11.528 1.89204 12.0546 2.18733 12.5013 2.57687C12.948 2.96641 13.305 3.44156 13.5492 3.97175C13.7934 4.50195 13.9195 5.07543 13.9193 5.65529V6.92913M6.71926 19.9538H12.4793C16.3385 19.9538 17.0297 18.4676 17.2313 16.6584L17.9513 11.1199C18.2105 8.8676 17.5385 7.03067 13.4393 7.03067H5.75926C1.66006 7.03067 0.988057 8.8676 1.24726 11.1199L1.96726 16.6584C2.16886 18.4676 2.86006 19.9538 6.71926 19.9538Z" stroke="black" stroke-width="1.5" stroke-miterlimit="10" stroke-linecap="round" stroke-linejoin="round"/>
<path id="Vector_2" d="M12.9546 10.7231H12.9642M6.23462 10.7231H6.2423" stroke="black" stroke-width="2" stroke-linecap="round" stroke-linejoin="round"/>
</g>
</svg>
